<svg xmlns="http://www.w3.org/2000/svg" xmlns:xlink="http://www.w3.org/1999/xlink" width="500" zoomAndPan="magnify" viewBox="0 0 375 374.999991" height="500" preserveAspectRatio="xMidYMid meet" version="1.0"><defs><clipPath id="62da8ec86f"><path d="M 126 53.890625 L 171 53.890625 L 171 143 L 126 143 Z M 126 53.890625 " clip-rule="nonzero"/></clipPath><clipPath id="0ebe36c823"><path d="M 115 165 L 349.242188 165 L 349.242188 277 L 115 277 Z M 115 165 " clip-rule="nonzero"/></clipPath><clipPath id="91dc96a977"><path d="M 182 98 L 349.242188 98 L 349.242188 121 L 182 121 Z M 182 98 " clip-rule="nonzero"/></clipPath><clipPath id="f790a52c93"><path d="M 104 287 L 272 287 L 272 320.890625 L 104 320.890625 Z M 104 287 " clip-rule="nonzero"/></clipPath></defs><rect x="-37.5" width="450" fill="#ffffff" y="-37.499999" height="449.999989" fill-opacity="1"/><path fill="#000000" d="M 326.890625 154.015625 L 115.195312 154.015625 L 115.195312 165.140625 L 326.894531 165.140625 Z M 326.890625 154.015625 " fill-opacity="1" fill-rule="nonzero"/><g clip-path="url(#62da8ec86f)"><path fill="#000000" d="M 170.902344 61.515625 C 170.902344 57.308594 167.484375 53.890625 163.273438 53.890625 C 161.945312 53.890625 160.632812 54.238281 159.484375 54.894531 C 139.03125 66.558594 126.335938 88.410156 126.335938 111.921875 L 126.335938 142.890625 L 170.902344 142.890625 Z M 170.902344 61.515625 " fill-opacity="1" fill-rule="nonzero"/></g><path fill="#000000" d="M 26.058594 177.949219 C 26.058594 178.515625 26.34375 179.039062 26.8125 179.351562 L 29.195312 180.9375 C 44.917969 191.398438 62.996094 197.324219 81.769531 198.308594 L 81.769531 176.265625 L 27.746094 176.265625 C 26.816406 176.265625 26.058594 177.019531 26.058594 177.949219 Z M 26.058594 177.949219 " fill-opacity="1" fill-rule="nonzero"/><path fill="#000000" d="M 104.054688 165.140625 L 98.480469 165.140625 C 95.40625 165.140625 92.910156 167.636719 92.910156 170.703125 L 92.910156 204.078125 C 92.910156 207.148438 95.40625 209.640625 98.480469 209.640625 L 104.054688 209.640625 Z M 104.054688 165.140625 " fill-opacity="1" fill-rule="nonzero"/><g clip-path="url(#0ebe36c823)"><path fill="#000000" d="M 326.890625 176.265625 L 115.195312 176.265625 L 115.195312 212.675781 L 151.3125 244.238281 C 156.679688 248.921875 159.761719 255.691406 159.761719 262.820312 C 159.761719 267.832031 158.242188 272.496094 155.65625 276.390625 L 232.804688 276.390625 C 225.554688 269.3125 221.042969 259.46875 221.042969 248.578125 C 221.042969 227.109375 238.539062 209.640625 260.039062 209.640625 L 349.175781 209.640625 L 349.175781 165.140625 L 338.03125 165.140625 C 338.03125 171.273438 333.035156 176.265625 326.890625 176.265625 Z M 326.890625 176.265625 " fill-opacity="1" fill-rule="nonzero"/></g><g clip-path="url(#91dc96a977)"><path fill="#000000" d="M 182.046875 98.390625 L 349.175781 98.390625 L 349.175781 120.640625 L 182.046875 120.640625 Z M 182.046875 98.390625 " fill-opacity="1" fill-rule="nonzero"/></g><g clip-path="url(#f790a52c93)"><path fill="#000000" d="M 265.609375 287.515625 L 109.625 287.515625 C 106.546875 287.515625 104.054688 290.003906 104.054688 293.078125 L 104.054688 315.328125 C 104.054688 318.398438 106.546875 320.890625 109.625 320.890625 L 265.609375 320.890625 C 268.683594 320.890625 271.179688 318.398438 271.179688 315.328125 L 271.179688 293.078125 C 271.179688 290.003906 268.683594 287.515625 265.609375 287.515625 Z M 265.609375 287.515625 " fill-opacity="1" fill-rule="nonzero"/></g></svg>